<?xml version="1.0" encoding="UTF-8" standalone="no"?>
<!DOCTYPE svg PUBLIC "-//W3C//DTD SVG 1.1//EN" "http://www.w3.org/Graphics/SVG/1.1/DTD/svg11.dtd">
<svg version="1.1" xmlns="http://www.w3.org/2000/svg" xmlns:xlink="http://www.w3.org/1999/xlink" preserveAspectRatio="xMidYMid meet" viewBox="0 0 640 640" width="640" height="640"><defs><path d="M248.61 255.92L247.12 270.7L246.14 282.51L245.43 295.5L244.4 307.31L244.4 319.73L246.62 325.35L249.09 329.29L252.48 333.26L254.24 336.19L256.34 340.87L255.56 402.48L243.8 401.47L233.04 400.42L223.09 399.67L214.67 398.85L205.45 398.21L197.85 397.04L189.1 395.84L181.85 393.85L176 392.21L170.04 389.99L165.36 387.53L161.74 385.44L158.7 382.75L156.25 380.18L154.26 377.84L152.5 374.68L151.34 371.75L150.28 368.71L149.85 269.89L120.69 269.54L119.76 269.19L118.13 268.49L116.95 268.02L115.91 267.09L114.97 265.04L114.5 264.11L114.15 261.88L114.5 259.54L114.97 257.09L115.91 255.1L118.13 253.7L121.31 252.61L149.85 252.61L149.85 214.13" id="a3MmR9xLRn"></path><path d="M150.02 213.94C149.71 213.97 149.08 214.03 148.14 214.13L146.68 213.04L147 211.48L463.99 211.48L466.85 211.48L466.55 212.49L465.5 212.88L464.19 212.88L463.68 213.74L463.34 215.17L463.34 222.09L463.34 231.9L463.14 241.53L463.14 252L464.19 252L467.54 252.2L472.04 252L477.4 252L481.43 252.2L490.05 252L493.3 252.58L495.12 253.54L496.18 254.21L497.61 255.64L498.96 257.18L499.34 258.42L499.34 260.15L499.34 261.97L498.96 265.32L497.61 267.04L495.79 268.48L492.54 270.17L463.34 270.17L463.14 289.5L463.34 319.42L463.14 336.99L463.14 350.93L463.34 369.35L462.1 372.51L457.88 379.41L451.41 385.43L439.24 391.38L425.32 394.94L406.4 397.72L387.82 399.92L366.59 401.3L365.93 384.38L365.34 371.26L365.34 362.82L365.34 359.02L366.83 356.53L368.55 354.75L372.05 352.46L376.46 347.87L379.23 343.46L380.96 337.62L381.53 331.01L380.96 324.97L379.9 320L377.89 314.34L374.73 309.07L370.42 303.3L368.22 301.1L365.63 299.47L363.33 299.08L361.51 299.08L359.53 299.75L356.14 301.9L351.12 308.22L347.29 315.31L345.47 322.55L344.63 328.49L343.79 334.43L344.63 338.15L346.73 344.38L349.99 349.16L352.86 351.65L357.08 354.33L358.76 356.53L359.91 360.08L359.91 364.07L359.53 377.01L359.53 386.59L358.76 402.3L320.44 404.27L319.39 391.38L319.77 386.23L320.44 377.58L320.44 370.2L321.29 364.67L321.29 359.02L321.29 333.85L320.44 308.56L319.77 290.07L319.77 282.03L319.39 279.06L318.33 277.15L315.94 277.15L314.12 277.91L311.73 280.45L309.24 284.09L307.23 288.79L306.08 294.44L304.97 301.1L303.58 313.84L303.58 330.16L304.24 355.24L304.97 364.07L306.35 369.7L308.27 381.76L308.27 389.24L307.5 404.27L264.96 403.01L264.45 391.04L264.2 361.81L264.66 342.03L264.96 339.32L267.44 335.39L269.74 332.04L273.67 326.58L275.7 322.55L276.6 318.05L276.6 310.26L275.7 297.41L274.07 277.67L273.02 268.13L273.02 264.55L272.63 260.53L271.18 255.64L271.18 310.26L270.32 312.65L267.73 312.65L266.48 311.89L265.92 307.69L264.96 297.83L264.96 289.5L264.2 278.19L263.62 268.13L262.41 255.97L262.41 268.13L262.41 282.65L262.41 302.48L262.41 310.96L261.55 313.5L259.64 313.5L258.23 312.16L258.23 300.04L258.71 290.07L258.71 278.75L258.23 265.64L257.65 255.97L256.98 264.78L256.34 278.75L255.83 289.5L255.07 300.04L254.4 310.96L252.77 312.97L250.47 312.97L249.25 310.96L248.99 292.9L249.25 283.11L249.25 270.17L248.68 256.19" id="a1zoDzrVM6"></path><path d="M466.57 208.69L467.8 208.28L467.8 206.85L466.95 205.74L465.81 205.05L483.51 195.52L485.42 193.81L486.37 192.48L486.37 190.57L486.37 189.24L485.42 187.43L483.51 186.38L450.68 186.38L436.58 185.96L426.17 183.32L410.65 179.58L398.57 177.15L389.87 175.53L383.68 174.69L375.42 173.11L367.29 171.96L362.15 171.02L355.02 170.07L346.22 169.48L342.98 166.45L339.65 164.54L336.22 162.96L330.7 161.39L324.8 159.54L318.09 159.2C317.84 144.76 317.74 137.11 317.8 136.22C317.87 135.33 317.87 133.97 317.8 132.13L316.19 128.99L313.62 127.08L310.57 125.5L307.63 125.5L304.59 125.69L301.45 126.65L298.88 128.17L297.07 130.45L295.97 134.26L295.97 158.72L292.92 158.72L288.74 159.2L284.46 159.96L279.66 161.39L274.52 163.3L270.62 165.48L267.02 168.81L261.32 169.48L252.65 170.53L240.86 171.96L234.33 173.11L224.92 174.69L217.11 176L207.24 178.25L199.63 180.06L192.59 181.58L185.25 183.77L176.61 185.96L133.23 186.38L131.04 186.38L128.95 187.43L127.52 189.8L127.14 192.85L135.51 198.58L148.45 205.05L148.45 206L147.12 206L146.17 206.85L146.17 208.28L466.57 208.69Z" id="arEU29o84"></path></defs><g><g><g><g><use xlink:href="#a3MmR9xLRn" opacity="1" fill-opacity="0" stroke="#000000" stroke-width="1" stroke-opacity="1"></use></g></g><g><g><use xlink:href="#a1zoDzrVM6" opacity="1" fill-opacity="0" stroke="#000000" stroke-width="1" stroke-opacity="1"></use></g></g><g><g><use xlink:href="#arEU29o84" opacity="1" fill-opacity="0" stroke="#000000" stroke-width="1" stroke-opacity="1"></use></g></g></g></g></svg>