<?xml version="1.0" encoding="UTF-8" standalone="no"?>
<!DOCTYPE svg PUBLIC "-//W3C//DTD SVG 1.1//EN" "http://www.w3.org/Graphics/SVG/1.1/DTD/svg11.dtd">
<svg version="1.1" xmlns="http://www.w3.org/2000/svg" xmlns:xlink="http://www.w3.org/1999/xlink" preserveAspectRatio="xMidYMid meet" viewBox="0 0 640 640" width="640" height="640">
<defs>
           <clipPath id="clip-bubble">
<g>
<path d="M334.31 118.55C370.35 118.55 399.58 148.56 399.58 185.58C399.58 186.98 399.54 188.37 399.45 189.74C425.49 195.37 444.64 214.22 444.64 236.62C444.64 236.62 444.64 236.62 444.64 236.62C444.64 263.46 417.15 285.22 383.24 285.22C367.84 285.22 244.63 285.22 229.23 285.22C195.32 285.22 167.83 263.46 167.83 236.62C167.83 236.62 167.83 236.62 167.83 236.62C167.83 213.22 188.72 193.69 216.54 189.07C219.04 163.7 239.89 143.9 265.25 143.9C270.83 143.9 276.17 144.85 281.17 146.61C293.02 129.62 312.4 118.55 334.31 118.55Z" id="crz9ZOKqh"></path>
<path d="M277.72 373.62C241.1 373.62 211.41 340.22 211.41 299.01C211.41 297.46 211.45 295.91 211.55 294.39C185.1 288.12 165.65 267.13 165.65 242.21C165.65 242.21 165.65 242.21 165.65 242.21C165.65 212.33 193.57 188.12 228.02 188.12C243.66 188.12 368.8 188.12 384.45 188.12C418.89 188.12 446.81 212.33 446.81 242.21C446.81 242.21 446.81 242.21 446.81 242.21C446.81 268.25 425.59 289.99 397.33 295.13C394.8 323.37 373.61 345.41 347.86 345.41C342.19 345.41 336.76 344.35 331.69 342.39C319.65 361.3 299.97 373.62 277.72 373.62Z" id="b7huXDE4r"></path>
</g>
</clipPath>
</defs>
</svg>